<svg xmlns="http://www.w3.org/2000/svg" viewBox="0 0 1200 760" role="img" aria-label="Jabones artesanales en presentación cálida"><defs><linearGradient id="bg" x1="0" y1="0" x2="1" y2="1"><stop offset="0" stop-color="#fff7ee"/><stop offset=".55" stop-color="#efd2bf"/><stop offset="1" stop-color="#b87855"/></linearGradient><radialGradient id="glow" cx="35%" cy="25%" r="55%"><stop offset="0" stop-color="#ffffff" stop-opacity=".9"/><stop offset="1" stop-color="#ffffff" stop-opacity="0"/></radialGradient><filter id="shadow" x="-20%" y="-20%" width="140%" height="150%"><feDropShadow dx="0" dy="22" stdDeviation="18" flood-color="#5e3926" flood-opacity=".26"/></filter></defs><rect width="1200" height="760" fill="url(#bg)"/><rect width="1200" height="760" fill="url(#glow)"/><g opacity=".18" stroke="#7d4e35" stroke-width="3" fill="none"><path d="M70 620C250 520 410 705 585 598s330-84 545 0"/><path d="M30 150c130 80 250-76 380 8s251 54 370-40 250-30 365 24"/></g><g filter="url(#shadow)"><rect x="265" y="325" width="360" height="170" rx="58" fill="#fffaf3"/><rect x="470" y="250" width="370" height="180" rx="66" fill="#f1bfa8"/><rect x="345" y="400" width="430" height="185" rx="70" fill="#d99b7d"/><path d="M382 450c86 42 218 43 352-5" stroke="#fff4ea" stroke-width="14" stroke-linecap="round" opacity=".52"/><path d="M530 302c74 30 168 29 255-7" stroke="#fff6ee" stroke-width="12" stroke-linecap="round" opacity=".45"/></g><g transform="translate(815 474)" opacity=".9"><circle cx="0" cy="0" r="46" fill="#8faf8a"/><path d="M-22 3c16-42 52-35 44 0-10 32-34 42-44 0Z" fill="#f6efe8" opacity=".8"/></g><text x="95" y="125" fill="#6f4c3c" font-family="Georgia, 'Times New Roman', serif" font-size="74" font-weight="700">Jabones</text><text x="98" y="174" fill="#6f4c3c" font-family="Arial, sans-serif" font-size="27" font-weight="700" letter-spacing="7">ARTESANALES</text></svg>