<svg xmlns="http://www.w3.org/2000/svg" viewBox="0 0 1200 760" role="img" aria-label="Spray y difusor aromático"><defs><linearGradient id="bg" x1="0" y1="0" x2="1" y2="1"><stop offset="0" stop-color="#eef5ea"/><stop offset=".52" stop-color="#d6e4cd"/><stop offset="1" stop-color="#6a8f65"/></linearGradient><radialGradient id="shine" cx="28%" cy="20%" r="65%"><stop offset="0" stop-color="#fff" stop-opacity=".9"/><stop offset="1" stop-color="#fff" stop-opacity="0"/></radialGradient><filter id="shadow" x="-25%" y="-25%" width="150%" height="155%"><feDropShadow dx="0" dy="24" stdDeviation="19" flood-color="#2d4a2b" flood-opacity=".25"/></filter></defs><rect width="1200" height="760" fill="url(#bg)"/><rect width="1200" height="760" fill="url(#shine)"/><g opacity=".22" fill="none" stroke="#4c6f47" stroke-width="4"><path d="M110 612c170-120 315 38 455-75 144-116 270-100 510 34"/><path d="M160 225c125-85 205-70 300 5s188 88 305 0 205-82 300-4"/></g><g filter="url(#shadow)"><rect x="455" y="224" width="210" height="390" rx="42" fill="#fffaf2"/><rect x="487" y="175" width="145" height="80" rx="23" fill="#c9d3bb"/><rect x="508" y="136" width="104" height="54" rx="18" fill="#8faf8a"/><rect x="493" y="365" width="134" height="118" rx="28" fill="#e8c9b8"/><path d="M665 250c86-130 160-144 223-98" stroke="#6f4c3c" stroke-width="11" stroke-linecap="round"/><path d="M684 250c106-48 183-38 258 20" stroke="#6f4c3c" stroke-width="11" stroke-linecap="round" opacity=".72"/><path d="M705 253c120 35 190 97 228 190" stroke="#6f4c3c" stroke-width="11" stroke-linecap="round" opacity=".45"/></g><g transform="translate(291 360)" filter="url(#shadow)"><rect x="0" y="90" width="200" height="170" rx="48" fill="#b87855"/><rect x="52" y="38" width="96" height="74" rx="22" fill="#f0d5c3"/><rect x="70" y="0" width="60" height="54" rx="12" fill="#6a8f65"/><path d="M34 167c54 30 112 30 165-2" stroke="#fff3e7" stroke-width="10" stroke-linecap="round" opacity=".55"/></g><text x="85" y="120" fill="#4c6f47" font-family="Georgia, 'Times New Roman', serif" font-size="72" font-weight="700">Aromas</text><text x="90" y="170" fill="#4c6f47" font-family="Arial, sans-serif" font-size="27" font-weight="700" letter-spacing="7">SPRAYS · DIFUSORES</text></svg>