<svg xmlns="http://www.w3.org/2000/svg" viewBox="0 0 1200 760" role="img" aria-label="Velas artesanales encendidas"><defs><linearGradient id="bg" x1="0" y1="0" x2="1" y2="1"><stop offset="0" stop-color="#2a1f1a"/><stop offset=".54" stop-color="#7d5a44"/><stop offset="1" stop-color="#e8c9b8"/></linearGradient><radialGradient id="flameGlow" cx="52%" cy="38%" r="45%"><stop offset="0" stop-color="#ffe0a8" stop-opacity=".95"/><stop offset=".42" stop-color="#efb073" stop-opacity=".5"/><stop offset="1" stop-color="#efb073" stop-opacity="0"/></radialGradient><filter id="shadow" x="-25%" y="-25%" width="150%" height="150%"><feDropShadow dx="0" dy="24" stdDeviation="18" flood-color="#150b07" flood-opacity=".34"/></filter></defs><rect width="1200" height="760" fill="url(#bg)"/><rect width="1200" height="760" fill="url(#flameGlow)"/><g opacity=".14" stroke="#fff3e3" stroke-width="3" fill="none"><path d="M0 620c170-125 318 80 493-30 166-104 335-91 707 20"/><path d="M88 142c160 72 270-60 430 26s270 70 510-30"/></g><g filter="url(#shadow)"><ellipse cx="590" cy="582" rx="372" ry="72" fill="#2a1f1a" opacity=".24"/><rect x="420" y="340" width="340" height="250" rx="50" fill="#fff8ed"/><ellipse cx="590" cy="340" rx="170" ry="44" fill="#f3d0bd"/><ellipse cx="590" cy="342" rx="112" ry="24" fill="#f9efe5"/><path d="M590 295c42-66 6-110-5-151-63 62-75 118-17 165 8-7 15-11 22-14Z" fill="#ffd57b"/><path d="M594 288c26-38 6-68-1-94-33 33-42 70-13 100 5-3 9-5 14-6Z" fill="#fff3cc"/><line x1="590" y1="319" x2="590" y2="350" stroke="#2a1f1a" stroke-width="5" stroke-linecap="round"/><path d="M455 432c76 30 202 35 286-7" stroke="#e4b69d" stroke-width="12" stroke-linecap="round" opacity=".52"/></g><g transform="translate(812 430)" filter="url(#shadow)"><rect x="0" y="70" width="150" height="116" rx="34" fill="#d4a88f"/><ellipse cx="75" cy="70" rx="75" ry="23" fill="#f7dfce"/><path d="M75 47c22-35 4-58-2-80-30 30-34 63-10 86 4-3 8-5 12-6Z" fill="#ffd987"/></g><text x="88" y="120" fill="#fff4e8" font-family="Georgia, 'Times New Roman', serif" font-size="72" font-weight="700">Velas</text><text x="92" y="170" fill="#fff4e8" font-family="Arial, sans-serif" font-size="27" font-weight="700" letter-spacing="7">AROMÁTICAS</text></svg>